<?xml version="1.0" encoding="UTF-8"?>
<svg version="1.1" xmlns="http://www.w3.org/2000/svg" width="500" height="500">
<path d="M0 0 C165 0 330 0 500 0 C500 165 500 330 500 500 C335 500 170 500 0 500 C0 335 0 170 0 0 Z " fill="#FEFEFE" transform="translate(0,0)"/>
<path d="M0 0 C1.01856583 0.00548355 1.01856583 0.00548355 2.05770874 0.01107788 C12.24099895 0.07536311 21.83598507 0.68936408 31.6875 3.375 C32.94240234 3.66503906 32.94240234 3.66503906 34.22265625 3.9609375 C62.9395795 11.34391944 87.74794138 31.69668989 103.10546875 56.63671875 C104.6875 59.375 104.6875 59.375 104.6875 60.375 C103.57060791 60.35143433 103.57060791 60.35143433 102.43115234 60.32739258 C82.80033851 59.63475374 82.80033851 59.63475374 63.6875 63.375 C62.65367187 63.69597656 61.61984375 64.01695312 60.5546875 64.34765625 C48.89612826 68.63348595 39.11216087 76.4176365 29.14428711 83.66088867 C26.6875 85.375 26.6875 85.375 23.91748047 86.90283203 C21.33819269 88.23580168 21.33819269 88.23580168 20.98046875 91.51171875 C20.94566406 92.68347656 20.91085937 93.85523438 20.875 95.0625 C20.82730469 96.24199219 20.77960938 97.42148438 20.73046875 98.63671875 C20.71628906 99.54035156 20.70210937 100.44398438 20.6875 101.375 C28.79996524 97.72374781 36.05826511 93.6083877 43.25 88.375 C60.84036615 75.61921627 77.96642459 68.90940892 99.875 72.1875 C101.81684966 72.561412 103.75503921 72.95525534 105.6875 73.375 C106.76451172 73.57996094 106.76451172 73.57996094 107.86328125 73.7890625 C110.70799885 74.6053198 112.37931097 75.86068453 113.890625 78.3828125 C124.97048621 105.42098127 121.74576747 139.04134145 110.8515625 165.45703125 C97.0247757 197.54921273 71.32586029 218.18919236 39.6875 231.375 C31.13344595 234.22635135 31.13344595 234.22635135 26.6875 233.375 C23.78881898 230.78108684 21.42805763 227.85611526 19.6875 224.375 C17.69849415 223.8355186 17.69849415 223.8355186 15.375 223.5 C11.28352423 222.68948578 9.4145163 221.62644251 6.6875 218.375 C5.6975 218.045 4.7075 217.715 3.6875 217.375 C4.43137279 219.23163332 5.18293748 221.08518538 5.9375 222.9375 C6.35515625 223.97003906 6.7728125 225.00257813 7.203125 226.06640625 C8.82041222 229.67125435 10.68048798 232.97422963 12.6875 236.375 C-24.07768607 237.35050244 -54.52750235 229.07724582 -81.98730469 203.10375977 C-88.67194206 196.5690844 -94.37140112 189.31136678 -99.3125 181.375 C-99.3125 180.715 -99.3125 180.055 -99.3125 179.375 C-75.20770788 171.36716855 -53.30649592 169.2136561 -29.3125 178.375 C-28.3225 178.375 -27.3325 178.375 -26.3125 178.375 C-25.6525 174.415 -24.9925 170.455 -24.3125 166.375 C-26.2925 166.045 -28.2725 165.715 -30.3125 165.375 C-32.28460133 164.69674459 -34.17120466 163.90845874 -36.08984375 163.09375 C-56.04059896 156.64218768 -82.43063665 161.03982637 -101.90625 167.60546875 C-104.3125 168.375 -104.3125 168.375 -106.3125 168.375 C-112.7539789 151.94818649 -116.50157421 137.10980226 -116.55273438 119.35083008 C-116.56236256 117.34118729 -116.59352598 115.331685 -116.625 113.32226562 C-116.74090401 83.78122994 -103.70808661 55.98794939 -83.22363281 35.04394531 C-75.01186393 26.79495595 -75.01186393 26.79495595 -70.3125 23.375 C-69.6525 23.375 -68.9925 23.375 -68.3125 23.375 C-68.22798584 24.03806152 -68.14347168 24.70112305 -68.05639648 25.38427734 C-65.96522344 41.23994307 -62.88501902 55.44575427 -55.59765625 69.73828125 C-54.3125 72.375 -54.3125 72.375 -54.3125 74.375 C-50.21099969 70.48383304 -48.46020309 68.53193396 -48.06640625 62.78125 C-48.13103839 57.81931574 -49.62082845 53.52018936 -51.25 48.875 C-54.35411851 39.90114464 -55.48204987 31.87773464 -55.375 22.375 C-55.37048828 21.60027344 -55.36597656 20.82554687 -55.36132812 20.02734375 C-55.34969758 18.14319476 -55.33176906 16.25908635 -55.3125 14.375 C-46.53440004 9.6898372 -38.00867946 5.84349876 -28.3125 3.375 C-27.40234131 3.12347168 -26.49218262 2.87194336 -25.55444336 2.61279297 C-16.95703767 0.39083611 -8.85657863 -0.09342267 0 0 Z " fill="#1C2221" transform="translate(248.3125,131.625)"/>
<path d="M0 0 C0.71800781 0.13664063 1.43601562 0.27328125 2.17578125 0.4140625 C5.02049885 1.2303198 6.69181097 2.48568453 8.203125 5.0078125 C19.28298621 32.04598127 16.05826747 65.66634145 5.1640625 92.08203125 C-8.6627243 124.17421273 -34.36163971 144.81419236 -66 158 C-74.55405405 160.85135135 -74.55405405 160.85135135 -79 160 C-81.89868102 157.40608684 -84.25944237 154.48111526 -86 151 C-88.32156597 150.59270772 -90.6568787 150.25561323 -93 150 C-93 149.67 -93 149.34 -93 149 C-90.36 149 -87.72 149 -85 149 C-85.93559469 145.07050229 -87.07123206 142.70018118 -90 140 C-92.92876794 137.29981882 -94.06440531 134.92949771 -95 131 C-94.45730469 130.54109375 -93.91460937 130.0821875 -93.35546875 129.609375 C-92.64003906 128.99578125 -91.92460937 128.3821875 -91.1875 127.75 C-90.47980469 127.14671875 -89.77210938 126.5434375 -89.04296875 125.921875 C-82.65324637 119.91089333 -81.300374 113.21036414 -80.88867188 104.69824219 C-80.83093043 102.29798995 -80.8144269 99.90091672 -80.8125 97.5 C-80.80025391 96.69691406 -80.78800781 95.89382813 -80.77539062 95.06640625 C-80.76231491 89.68792821 -81.61080979 85.18741263 -83 80 C-83.08984375 77.63671875 -83.08984375 77.63671875 -82.9375 75.6875 C-82.77361468 70.17324095 -84.36108674 65.21915831 -86 60 C-85.01 60 -84.02 60 -83 60 C-83.31710937 58.91203125 -83.63421875 57.8240625 -83.9609375 56.703125 C-85.27966793 51.41424848 -85.45434991 46.1791681 -85.625 40.75 C-85.66294678 39.73671631 -85.70089355 38.72343262 -85.73999023 37.67944336 C-85.9839475 30.78502281 -86.13352206 23.89863969 -86 17 C-85.67 17 -85.34 17 -85 17 C-85 20.63 -85 24.26 -85 28 C-76.88753476 24.34874781 -69.62923489 20.2333877 -62.4375 15 C-42.84678765 0.79365048 -24.04237924 -5.22218111 0 0 Z " fill="#408459" transform="translate(354,205)"/>
<path d="M0 0 C0.08451416 0.66306152 0.16902832 1.32612305 0.25610352 2.00927734 C2.34727656 17.86494307 5.42748098 32.07075427 12.71484375 46.36328125 C14 49 14 49 14 51 C14.99 51.495 14.99 51.495 16 52 C13.94766315 54.2477975 12.99332739 55.0022242 10 56 C8.19539315 58.38465905 7.02929386 60.03330262 6.9375 63.0625 C8.57683102 66.05186833 11.13457821 67.21586945 14 69 C16.95090721 71.34868125 19.66736581 73.62935048 22.1875 76.4375 C31.91295251 85.29846784 41.42272172 85.97232722 54 86 C56.76135206 96.23611655 55.46222447 103.4619952 51 113 C50.67 113.33 50.34 113.66 50 114 C49.67052479 115.76418996 49.38750901 117.53711014 49.125 119.3125 C48.26402454 124.73729273 47.07804775 129.9981083 45.68359375 135.30859375 C45.0352754 137.8611157 44.49289526 140.41347344 44 143 C39.74077738 142.46759717 36.14201547 141.38302143 32.22265625 139.71875 C12.27190104 133.26718768 -14.11813665 137.66482637 -33.59375 144.23046875 C-36 145 -36 145 -38 145 C-44.4414789 128.57318649 -48.18907421 113.73480226 -48.24023438 95.97583008 C-48.24986256 93.96618729 -48.28102598 91.956685 -48.3125 89.94726562 C-48.42840401 60.40622994 -35.39558661 32.61294939 -14.91113281 11.66894531 C-3.29483926 0 -3.29483926 0 0 0 Z " fill="#408459" transform="translate(180,155)"/>
<path d="M0 0 C1.01856583 0.00548355 1.01856583 0.00548355 2.05770874 0.01107788 C12.24099895 0.07536311 21.83598507 0.68936408 31.6875 3.375 C32.52410156 3.56835938 33.36070312 3.76171875 34.22265625 3.9609375 C62.9395795 11.34391944 87.74794138 31.69668989 103.10546875 56.63671875 C104.6875 59.375 104.6875 59.375 104.6875 60.375 C103.57060791 60.35143433 103.57060791 60.35143433 102.43115234 60.32739258 C82.80033851 59.63475374 82.80033851 59.63475374 63.6875 63.375 C62.65367187 63.69597656 61.61984375 64.01695312 60.5546875 64.34765625 C48.84710196 68.65150862 39.03199926 76.49014477 29.03076172 83.77441406 C26.9660867 85.18470886 24.95280239 86.32766539 22.6875 87.375 C22.955625 86.715 23.22375 86.055 23.5 85.375 C24.37324025 83.16891937 25.17579479 80.93453036 25.9375 78.6875 C29.11354704 70.30713825 34.02998361 63.73421259 40.10546875 57.234375 C43.25677743 53.74457477 46.19584896 50.11413514 49.125 46.4375 C49.90544678 45.46067261 49.90544678 45.46067261 50.70166016 44.46411133 C52.80687484 41.81265066 54.80707257 39.19564115 56.6875 36.375 C57.3475 36.375 58.0075 36.375 58.6875 36.375 C58.6875 35.715 58.6875 35.055 58.6875 34.375 C60.6675 34.045 62.6475 33.715 64.6875 33.375 C64.1925 31.395 64.1925 31.395 63.6875 29.375 C64.3475 29.375 65.0075 29.375 65.6875 29.375 C65.3575 27.725 65.0275 26.075 64.6875 24.375 C63.41490489 24.82841868 62.14448757 25.28795227 60.875 25.75 C60.16730469 26.00523437 59.45960938 26.26046875 58.73046875 26.5234375 C56.43976641 27.4015769 56.43976641 27.4015769 53.6875 29.375 C51.0625 29.125 51.0625 29.125 48.6875 28.375 C48.1925 27.385 48.1925 27.385 47.6875 26.375 C46.2025 25.88 46.2025 25.88 44.6875 25.375 C45.13802734 26.38820312 45.13802734 26.38820312 45.59765625 27.421875 C45.97792969 28.31390625 46.35820312 29.2059375 46.75 30.125 C47.13285156 31.00671875 47.51570313 31.8884375 47.91015625 32.796875 C48.75938294 35.61340574 48.8798946 36.71419352 47.6875 39.375 C46.12109375 41.0859375 46.12109375 41.0859375 44.125 42.75 C43.40699219 43.35457031 42.68898438 43.95914063 41.94921875 44.58203125 C39.82064968 46.26944611 37.64683089 47.8582222 35.4375 49.4375 C31.95504916 51.9899396 29.96634072 54.68170642 27.6875 58.375 C26.0415349 60.06211423 24.37512851 61.7295622 22.6875 63.375 C22.089375 64.2 21.49125 65.025 20.875 65.875 C17.93823017 69.23130838 14.5036348 71.14173836 10.6875 73.375 C9.6975 74.035 8.7075 74.695 7.6875 75.375 C7.72230469 74.79234375 7.75710938 74.2096875 7.79296875 73.609375 C8.0289184 66.46347143 6.66320894 60.21942026 4.6875 53.375 C3.6975 54.035 2.7075 54.695 1.6875 55.375 C-0.57546187 56.1580176 -2.85767078 56.82567481 -5.15625 57.49609375 C-8.40695379 58.82110888 -9.87976296 60.59607333 -11.5625 63.625 C-12.55835975 67.27648576 -12.22834589 69.71161643 -11.3125 73.375 C-10.631875 74.220625 -9.95125 75.06625 -9.25 75.9375 C-7.3125 78.375 -7.3125 78.375 -6.875 81.5625 C-7.019375 82.490625 -7.16375 83.41875 -7.3125 84.375 C-10.3125 86.375 -10.3125 86.375 -13.1875 86.6875 C-17.21911453 87.5744552 -18.45404222 89.4484837 -21.3125 92.375 C-24.91848542 94.78148923 -27.77395724 96.41063382 -32.1796875 96.30859375 C-36.17283862 95.1186148 -38.59220216 92.91133109 -41.5 90.0625 C-42.28020508 89.33256836 -42.28020508 89.33256836 -43.07617188 88.58789062 C-45.75806845 86.04300026 -48.36546617 83.53291 -50.3125 80.375 C-49.26722616 75.40994925 -45.68131528 71.10782718 -41.62841797 68.14306641 C-39.77723561 67.00229719 -37.90191432 65.92888597 -36 64.875 C-34.66367646 64.10056189 -33.3290241 63.32323261 -31.99609375 62.54296875 C-31.3604248 62.17220215 -30.72475586 61.80143555 -30.06982422 61.41943359 C-24.32087892 58.00265282 -19.4709769 54.9853355 -17.3125 48.375 C-16.64542452 44.78999591 -16.64542452 44.78999591 -17.3125 41.375 C-20.04738747 38.0418559 -21.80294919 37.45143262 -26.0625 36.8125 C-32.70930519 37.18873426 -38.24161682 40.91916939 -42.75 45.625 C-45.81956604 49.47683772 -46.68023182 53.56758161 -47.3125 58.375 C-49.58277879 54.96958181 -50.67833885 51.55445547 -51.875 47.6875 C-52.09607422 47.00494141 -52.31714844 46.32238281 -52.54492188 45.61914062 C-54.96899284 37.86357822 -55.46612531 30.46412329 -55.375 22.375 C-55.37048828 21.60027344 -55.36597656 20.82554687 -55.36132812 20.02734375 C-55.34969758 18.14319476 -55.33176906 16.25908635 -55.3125 14.375 C-46.53440004 9.6898372 -38.00867946 5.84349876 -28.3125 3.375 C-27.40234131 3.12347168 -26.49218262 2.87194336 -25.55444336 2.61279297 C-16.95703767 0.39083611 -8.85657863 -0.09342267 0 0 Z " fill="#408459" transform="translate(248.3125,131.625)"/>
<path d="M0 0 C1.31682429 2.5323544 2.39681352 5.01791294 3.4375 7.6875 C3.953125 8.780625 4.46875 9.87375 5 11 C5.99 11.33 6.98 11.66 8 12 C9.11908108 14.89644515 9.51627564 17.93991762 10 21 C10.2165625 22.299375 10.2165625 22.299375 10.4375 23.625 C9.85183036 26.80434948 8.2557233 28.64237501 6.296875 31.16796875 C5.01678694 32.97628592 4.23150151 34.6275072 3.4375 36.6875 C1.99474716 40.01210437 0.55581599 41.52937788 -2 44 C-3.45944506 47.52699224 -3.40964124 51.2449553 -3 55 C-2.22011719 55.44730469 -1.44023437 55.89460938 -0.63671875 56.35546875 C2.69705933 58.43475849 3.23319487 60.10020054 4.5625 63.75 C6.32457189 68.50576497 8.41669149 72.652614 11 77 C-25.76518607 77.97550244 -56.21500235 69.70224582 -83.67480469 43.72875977 C-90.35944206 37.1940844 -96.05890112 29.93636678 -101 22 C-101 21.34 -101 20.68 -101 20 C-81.25831588 13.44163276 -59.27473466 8.79990849 -39 16 C-37.95714844 16.35964844 -36.91429687 16.71929687 -35.83984375 17.08984375 C-33.21079695 18.02380348 -30.60109747 18.99130669 -28 20 C-29.64702936 21.64702936 -31.2963483 23.27779029 -32.99609375 24.87109375 C-35.12366192 27.13137572 -36.53682796 29.36511183 -38.0625 32.0625 C-40.68463283 36.68774757 -40.68463283 36.68774757 -42.58203125 38.56640625 C-48.07822242 44.12316151 -47.95675669 54.7351247 -48 62 C-46.96593327 63.25949049 -46.96593327 63.25949049 -44.71484375 63.09765625 C-43.79832031 63.08605469 -42.88179687 63.07445312 -41.9375 63.0625 C-41.01839844 63.05347656 -40.09929687 63.04445313 -39.15234375 63.03515625 C-38.44207031 63.02355469 -37.73179687 63.01195312 -37 63 C-35.20532275 59.41064549 -35.6299929 55.00651586 -35.48242188 51.02929688 C-35.20988181 45.47050802 -34.71592491 41.80233839 -30.828125 37.71875 C-29.97734375 36.9865625 -29.1265625 36.254375 -28.25 35.5 C-27.40953125 34.7678125 -26.5690625 34.035625 -25.703125 33.28125 C-23 31 -23 31 -19.8828125 28.73828125 C-16.30580218 25.34060614 -15.13098215 22.29185527 -13.625 17.6875 C-13.36589844 16.94693359 -13.10679687 16.20636719 -12.83984375 15.44335938 C-12.20972482 13.63468467 -11.60246385 11.81807353 -11 10 C-8.69 10 -6.38 10 -4 10 C-3.896875 9.0925 -3.79375 8.185 -3.6875 7.25 C-2.99585051 3.98038425 -2.17865079 2.46282263 0 0 Z " fill="#41855A" transform="translate(250,291)"/>
<path d="M0 0 C0.66 0 1.32 0 2 0 C3.4453125 1.72265625 3.4453125 1.72265625 5.125 4.0625 C10.3906556 11.01054349 16.28458418 15.98155426 24 20 C21.00464618 23.34097157 18.21110435 25.39978035 14 27 C8.49026725 26.81608681 5.59617574 24.39444721 1.8125 20.6875 C1.29236328 20.20087891 0.77222656 19.71425781 0.23632812 19.21289062 C-2.44556845 16.66800026 -5.05296617 14.15791 -7 11 C-6.04221075 6.45050105 -3.09169003 3.32356678 0 0 Z " fill="#F9FAFA" transform="translate(205,201)"/>
<path d="M0 0 C1.31682429 2.5323544 2.39681352 5.01791294 3.4375 7.6875 C3.953125 8.780625 4.46875 9.87375 5 11 C5.99 11.33 6.98 11.66 8 12 C8.73046875 13.890625 8.73046875 13.890625 9.1875 16.25 C9.42533203 17.40242188 9.42533203 17.40242188 9.66796875 18.578125 C10.55558798 25.05252407 10.55558798 25.05252407 8.6875 28.23828125 C8.130625 28.92277344 7.57375 29.60726563 7 30.3125 C6.443125 31.00988281 5.88625 31.70726562 5.3125 32.42578125 C4.6628125 33.20501953 4.6628125 33.20501953 4 34 C1.37455171 31.47956964 -1.01649974 28.82890053 -3.375 26.0625 C-6.34464684 22.63105062 -9.42644756 19.7891141 -13 17 C-12.34 14.69 -11.68 12.38 -11 10 C-8.69 10 -6.38 10 -4 10 C-3.896875 9.0925 -3.79375 8.185 -3.6875 7.25 C-2.99585051 3.98038425 -2.17865079 2.46282263 0 0 Z " fill="#418359" transform="translate(250,291)"/>
<path d="M0 0 C7.04362684 3.00954965 13.53324818 10.22407598 17 17 C16.875 19.125 16.875 19.125 16 21 C15.71125 21.70125 15.4225 22.4025 15.125 23.125 C14 25 14 25 11 27 C10.34 27.99 9.68 28.98 9 30 C8.45472656 29.03900391 8.45472656 29.03900391 7.8984375 28.05859375 C2.84520997 18.73675639 2.84520997 18.73675639 -5 12 C-3.41037341 7.96479403 -1.71767682 3.98188718 0 0 Z " fill="#FAFBFA" transform="translate(237,308)"/>
<path d="M0 0 C0.680625 0.680625 1.36125 1.36125 2.0625 2.0625 C2.51882812 2.51625 2.97515625 2.97 3.4453125 3.4375 C4.53379771 4.53145498 5.61105985 5.6366391 6.6796875 6.75 C10.20560291 10.38561056 13.65390514 13.33307816 18 16 C18.99 16.66 19.98 17.32 21 18 C12.20017508 17.12001751 5.74067479 12.37819797 -1 7 C-0.67 4.69 -0.34 2.38 0 0 Z " fill="#44845C" transform="translate(197,211)"/>
<path d="M0 0 C2.5 0.125 2.5 0.125 3.5 1.125 C3.625 3.625 3.625 3.625 3.5 6.125 C2.5 7.125 2.5 7.125 0 7.25 C-2.5 7.125 -2.5 7.125 -3.5 6.125 C-3.625 3.625 -3.625 3.625 -3.5 1.125 C-2.5 0.125 -2.5 0.125 0 0 Z " fill="#1E2322" transform="translate(305.5,128.875)"/>
</svg>
